<?xml version="1.0" encoding="utf-8"?>
<!-- Generator: Adobe Illustrator 24.0.0, SVG Export Plug-In . SVG Version: 6.00 Build 0)  -->
<svg version="1.1" id="Layer_1" xmlns="http://www.w3.org/2000/svg" xmlns:xlink="http://www.w3.org/1999/xlink" x="0px" y="0px"
	 viewBox="0 0 200 200" style="enable-background:new 0 0 200 200;" xml:space="preserve">
<style type="text/css">
	.st0{fill:#FFFFFF;}
</style>
<g>
	<path class="st0" d="M126.2,150H73.8C60.6,150,50,139.4,50,126.2V73.8C50,60.6,60.6,50,73.8,50h52.5c13.1,0,23.8,10.7,23.8,23.8
		v52.5C150,139.4,139.4,150,126.2,150z M73.8,55.1c-10.3,0-18.7,8.4-18.7,18.7v52.5c0,10.3,8.4,18.7,18.7,18.7h52.5
		c10.3,0,18.7-8.4,18.7-18.7V73.8c0-10.3-8.4-18.7-18.7-18.7H73.8z"/>
	<g>
		<path class="st0" d="M116.1,77.2c0.3,0.3,0.8,1.7,0.8,2.7c0,1.4-0.3,2.4-0.9,3.1c-0.6,0.7-1.8,1-3.7,1H97v12.6h16.2
			c0.9,0,1.6,0.3,2.2,0.9s0.9,1.5,0.9,2.5c0,1.1-0.3,2-0.8,2.6c-0.5,0.6-1.3,1-2.3,1H97v16.7c0,1-0.4,1.8-1.2,2.5
			c-0.8,0.7-1.9,1.1-3.4,1.1c-1.5,0-2.6-0.4-3.5-1.1c-0.8-0.7-1.2-1.6-1.2-2.6V81.1c0-1.2,0.4-2.3,1.3-3.1c0.9-0.8,2-1.2,3.5-1.2
			H110c2.2,0,3.6,0,4.3-0.1C114.3,76.8,115.8,76.9,116.1,77.2z"/>
	</g>
</g>
</svg>
