<svg xmlns="http://www.w3.org/2000/svg" width="88.339" height="60.944" viewBox="0 0 88.339 60.944">
  <g id="Group_934" data-name="Group 934" transform="translate(-1037.728 -157.878)">
    <g id="Group_900" data-name="Group 900" transform="translate(1039.452 202.737)">
      <path id="Path_688" data-name="Path 688" d="M1041.548,212.983h-.089c.089.91.156,2.6.156,4.288v9.619h-1.845V211.028h2.955l4.887,13h.09l4.976-13h2.932V226.89h-1.977v-9.753c0-1.532.089-3.177.156-4.131h-.09l-5.287,13.885h-1.643Z" transform="translate(-1039.771 -211.028)"/>
      <path id="Path_689" data-name="Path 689" d="M1072.467,227.62h-1.6l-.29-1.577h-.089a4.3,4.3,0,0,1-3.777,1.8c-2.865,0-4.331-1.312-4.331-4.332v-7.8h1.976v7.664c0,1.911.845,2.843,2.643,2.843,2.644,0,3.511-1.533,3.511-4.31v-6.2h1.955Z" transform="translate(-1043.298 -211.759)"/>
      <path id="Path_690" data-name="Path 690" d="M1081.062,227.8a7.681,7.681,0,0,1-3.732-.756v-1.776a9.005,9.005,0,0,0,3.776.955c1.978,0,2.822-.689,2.822-1.755,0-.889-.6-1.422-2.934-2.311-2.31-.889-3.687-1.6-3.687-3.553,0-2.022,1.8-3.155,4.467-3.155a9.3,9.3,0,0,1,3.8.8l-.666,1.556a8.465,8.465,0,0,0-3.266-.756c-1.6,0-2.466.556-2.466,1.445,0,1,.779,1.4,3.066,2.266,2.266.843,3.577,1.621,3.577,3.53,0,2.311-1.844,3.511-4.754,3.511" transform="translate(-1045.626 -211.718)"/>
      <path id="Path_691" data-name="Path 691" d="M1091.56,220.448h6.065c-.022-2.022-.911-3.4-2.888-3.4-1.866,0-2.977,1.266-3.177,3.4m8.109.377V222h-8.153c.067,2.689,1.421,4.132,3.8,4.132a8.93,8.93,0,0,0,3.822-.821v1.71a8.906,8.906,0,0,1-3.91.777c-3.4,0-5.732-2.11-5.732-6.087,0-3.909,2.111-6.264,5.266-6.264,3.043,0,4.91,2.132,4.91,5.375" transform="translate(-1047.527 -211.718)"/>
      <path id="Path_692" data-name="Path 692" d="M1114.494,227.62h-1.6l-.29-1.577h-.089a4.3,4.3,0,0,1-3.777,1.8c-2.865,0-4.331-1.312-4.331-4.332v-7.8h1.976v7.664c0,1.911.845,2.843,2.643,2.843,2.644,0,3.511-1.533,3.511-4.31v-6.2h1.955Z" transform="translate(-1049.854 -211.759)"/>
      <path id="Path_693" data-name="Path 693" d="M1137.192,219.826v7.753h-1.934v-7.664c0-1.866-.777-2.821-2.421-2.821-2.31,0-3.222,1.377-3.222,3.909v6.576h-1.932v-7.664c0-1.866-.777-2.821-2.443-2.821-2.4,0-3.178,1.532-3.178,4.31v6.176h-1.955V215.672h1.577l.29,1.622h.111a3.949,3.949,0,0,1,3.509-1.845c1.821,0,3.066.645,3.644,2h.111a4.29,4.29,0,0,1,3.821-2c2.687,0,4.021,1.311,4.021,4.377" transform="translate(-1052.303 -211.718)"/>
    </g>
    <rect id="Rectangle_2188" data-name="Rectangle 2188" width="88.339" height="35.887" transform="translate(1037.728 157.878)" fill="#0059a3"/>
    <g id="Group_901" data-name="Group 901" transform="translate(1039.453 159.947)">
      <path id="Path_694" data-name="Path 694" d="M1039.772,176.2c0,8.677,17.792,15.873,42.444,15.873s42.443-7.2,42.443-15.873-17.792-15.873-42.443-15.873-42.444,7.2-42.444,15.873" transform="translate(-1039.772 -160.33)" fill="#ffdb00"/>
      <path id="Path_695" data-name="Path 695" d="M1118.846,171.868h.421a.365.365,0,1,0,0-.728h-.421Zm0,1.036h-.306v-2.071h.776a.669.669,0,0,1,.647.671.684.684,0,0,1-.365.605l.448.8h-.346l-.408-.728h-.446Zm-1.037-1.036a1.38,1.38,0,1,0,1.382-1.38,1.331,1.331,0,0,0-1.382,1.38m-.343,0a1.666,1.666,0,0,1,1.725-1.726,1.7,1.7,0,0,1,1.726,1.726,1.726,1.726,0,0,1-3.451,0m-59.856-1.036h-8.656a2.376,2.376,0,0,1,.187,1.124v10.865a2.376,2.376,0,0,1-.187,1.124h8.656a2.378,2.378,0,0,1-.187-1.124V171.957a2.378,2.378,0,0,1,.187-1.124m53.13,8.282-1.159-3.036a8.363,8.363,0,0,1-.258-.863,6.872,6.872,0,0,1-.226.863c-.045.12-.528,1.458-1.1,3.036Zm9.4,3.7a3.413,3.413,0,0,0,.616,1.128h-8.332a2.42,2.42,0,0,0-.252-1.124s-.126-.3-.3-.751c-.013-.029-.076-.2-.076-.2h-4.8l-.071.2s-.136.372-.27.751a2.373,2.373,0,0,0-.214,1.124h-6.573a3.283,3.283,0,0,0,.6-1.123l3.941-10.866a2.414,2.414,0,0,0,.222-1.124h11.1a1.909,1.909,0,0,0,.246,1.124c.32.838,3.879,10.128,4.16,10.862m-36.486-10.862v10.865a2.376,2.376,0,0,1-.187,1.124h15.371v-3.638a2.377,2.377,0,0,1-1.124.187h-6.468v-1.726h6.211v-2.76h-6.211v-1.725h6.468a2.436,2.436,0,0,1,1.124.182v-3.633h-15.371a2.378,2.378,0,0,1,.187,1.124m-2.5,10.865a7.285,7.285,0,0,0,.937,1.124h-9.555a4.321,4.321,0,0,0-.771-1.76c-.41-.61-2.6-3.935-2.6-3.935v4.57a2.378,2.378,0,0,0,.187,1.124h-7.967a2.377,2.377,0,0,0,.188-1.124V171.957a2.367,2.367,0,0,0-.188-1.124h7.967a2.378,2.378,0,0,0-.187,1.124V176.7s2.548-3.309,3.128-4.084a4.866,4.866,0,0,0,.993-1.783h8.3a8.876,8.876,0,0,0-1.721,1.7c-.453.556-3.042,3.706-3.042,3.706s3.831,5.835,4.33,6.586" transform="translate(-1041.204 -161.861)" fill="#0059a3"/>
    </g>
  </g>
</svg>