<?xml version="1.0" encoding="utf-8"?>
<!-- Generator: Adobe Illustrator 24.0.0, SVG Export Plug-In . SVG Version: 6.00 Build 0)  -->
<svg version="1.1" id="Layer_1" xmlns="http://www.w3.org/2000/svg" xmlns:xlink="http://www.w3.org/1999/xlink" x="0px" y="0px"
	 viewBox="0 0 200 200" style="enable-background:new 0 0 200 200;" xml:space="preserve">
<style type="text/css">
	.st0{fill:#FFFFFF;}
</style>
<g>
	<path class="st0" d="M127.1,150H72.9c-12.7,0-23-10.3-23-23V72.9c0-12.7,10.3-23,23-23h54.1c12.7,0,23,10.3,23,23v54.1
		C150,139.7,139.7,150,127.1,150z M72.9,55.1c-9.8,0-17.8,8-17.8,17.8v54.1c0,9.8,8,17.8,17.8,17.8h54.1c9.8,0,17.8-8,17.8-17.8
		V72.9c0-9.8-8-17.8-17.8-17.8H72.9z"/>
	<path class="st0" d="M100,128.7c-15.8,0-28.7-12.9-28.7-28.7c0-15.8,12.9-28.7,28.7-28.7c15.8,0,28.7,12.9,28.7,28.7
		C128.7,115.8,115.8,128.7,100,128.7z M100,76.4C87,76.4,76.4,87,76.4,100c0,13,10.6,23.6,23.6,23.6c13,0,23.6-10.6,23.6-23.6
		C123.6,87,113,76.4,100,76.4z"/>
	<path class="st0" d="M127.4,73.8c-2.4,0-4.4-2-4.4-4.4s2-4.4,4.4-4.4s4.4,2,4.4,4.4S129.9,73.8,127.4,73.8z M127.4,67.5
		c-1,0-1.8,0.8-1.8,1.8s0.8,1.8,1.8,1.8s1.8-0.8,1.8-1.8S128.4,67.5,127.4,67.5z"/>
</g>
</svg>
