<?xml version="1.0" encoding="utf-8"?>
<!-- Generator: Adobe Illustrator 24.0.0, SVG Export Plug-In . SVG Version: 6.00 Build 0)  -->
<svg version="1.1" id="Layer_1" xmlns="http://www.w3.org/2000/svg" xmlns:xlink="http://www.w3.org/1999/xlink" x="0px" y="0px"
	 viewBox="0 0 200 200" style="enable-background:new 0 0 200 200;" xml:space="preserve">
<style type="text/css">
	.st0{fill:#FFFFFF;}
	.st1{fill:#231F20;}
	.st2{font-family:'FranklinGothic-Heavy';}
	.st3{font-size:26.7044px;}
</style>
<g>
	<path class="st0" d="M126.2,150H73.8C60.6,150,50,139.4,50,126.2V73.8C50,60.6,60.6,50,73.8,50h52.5c13.1,0,23.8,10.7,23.8,23.8
		v52.5C150,139.4,139.4,150,126.2,150z M73.8,55.1c-10.3,0-18.7,8.4-18.7,18.7v52.5c0,10.3,8.4,18.7,18.7,18.7h52.5
		c10.3,0,18.7-8.4,18.7-18.7V73.8c0-10.3-8.4-18.7-18.7-18.7H73.8z"/>
	<g>
		<path class="st0" d="M131,95.3c0,12.2-13.3,22.1-29.6,22.1c-4.8,0-9.4-0.9-13.4-2.4l-13.3,9l4.8-13.8c-4.8-3.9-7.7-9.1-7.7-14.8
			c0-12.2,13.3-22.1,29.7-22.1C117.7,73.2,131,83.1,131,95.3z"/>
	</g>
	<text transform="matrix(1 0 0 1 85.0535 104.4258)" class="st1 st2 st3">Ch</text>
</g>
</svg>
