<?xml version="1.0" encoding="utf-8"?>
<!-- Generator: Adobe Illustrator 24.0.0, SVG Export Plug-In . SVG Version: 6.00 Build 0)  -->
<svg version="1.1" id="Layer_1" xmlns="http://www.w3.org/2000/svg" xmlns:xlink="http://www.w3.org/1999/xlink" x="0px" y="0px"
	 viewBox="0 0 200 200" style="enable-background:new 0 0 200 200;" xml:space="preserve">
<style type="text/css">
	.st0{fill:#155EA8;}
</style>
<g>
	<path class="st0" d="M90.2,58.1c0,9.4-7.6,16.9-17,16.9c-9.4,0-16.9-7.6-16.9-17c0-9.4,7.6-16.9,17-16.9
		C82.6,41.1,90.2,48.7,90.2,58.1z"/>
	<path class="st0" d="M141.9,58.1c0,9.4-7.6,16.9-17,16.9c-9.4,0-16.9-7.6-16.9-17c0-9.4,7.6-16.9,17-16.9
		C134.3,41.2,141.9,48.7,141.9,58.1z"/>
	<path class="st0" d="M167.4,84.8c0,31.5-29,57.1-64.7,57.1c-35.7,0-64.6-25.6-64.6-57.2L167.4,84.8z"/>
</g>
</svg>
